<mxfile host="app.diagrams.net" modified="2021-04-05T18:43:09.149Z" agent="5.0 (X11; Linux x86_64) AppleWebKit/537.36 (KHTML, like Gecko) Chrome/83.0.4103.116 Safari/537.36" etag="ir5LSIM3ONGBJIHmFDM4" version="14.5.7" type="github">
  <diagram id="cv6Ku92gqxpMJyDZPzsR" name="Page-1">
    <mxGraphModel dx="782" dy="448" grid="1" gridSize="10" guides="1" tooltips="1" connect="1" arrows="1" fold="1" page="1" pageScale="1" pageWidth="850" pageHeight="1100" math="1" shadow="0">
      <root>
        <mxCell id="0" />
        <mxCell id="1" parent="0" />
        <mxCell id="bVXocY5plBnqCkHnwArX-1" value="$$consultancy-service$$" style="rounded=1;whiteSpace=wrap;html=1;" parent="1" vertex="1">
          <mxGeometry x="300" y="30" width="170" height="60" as="geometry" />
        </mxCell>
        <mxCell id="bVXocY5plBnqCkHnwArX-13" value="Received Payments Controller Layer" style="swimlane;fontStyle=1;align=center;verticalAlign=middle;childLayout=stackLayout;horizontal=1;startSize=30;horizontalStack=0;resizeParent=1;resizeParentMax=0;resizeLast=0;collapsible=0;marginBottom=0;html=1;" parent="1" vertex="1">
          <mxGeometry x="35" y="520" width="230" height="110" as="geometry" />
        </mxCell>
        <mxCell id="bVXocY5plBnqCkHnwArX-28" value="&lt;font face=&quot;helvetica&quot;&gt;&lt;span style=&quot;font-weight: 400&quot;&gt;RecievedPayment&lt;/span&gt;&lt;/font&gt;" style="swimlane;fontStyle=1;align=center;verticalAlign=middle;childLayout=stackLayout;horizontal=1;startSize=29;horizontalStack=0;resizeParent=1;resizeParentMax=0;resizeLast=0;collapsible=0;marginBottom=0;html=1;" parent="1" vertex="1">
          <mxGeometry x="35" y="690" width="170" height="99" as="geometry" />
        </mxCell>
        <mxCell id="bVXocY5plBnqCkHnwArX-29" value="&lt;div&gt;&lt;font face=&quot;helvetica&quot;&gt;- Payments&lt;/font&gt;&lt;/div&gt;&lt;div&gt;&lt;font face=&quot;helvetica&quot;&gt;- Consultant&lt;/font&gt;&lt;/div&gt;&lt;div&gt;&lt;font face=&quot;helvetica&quot;&gt;- User&lt;/font&gt;&lt;/div&gt;" style="text;whiteSpace=wrap;html=1;align=left;" parent="bVXocY5plBnqCkHnwArX-28" vertex="1">
          <mxGeometry y="29" width="170" height="70" as="geometry" />
        </mxCell>
        <mxCell id="bVXocY5plBnqCkHnwArX-30" value="" style="endArrow=classic;html=1;entryX=0.522;entryY=0.995;entryDx=0;entryDy=0;entryPerimeter=0;exitX=0.5;exitY=0;exitDx=0;exitDy=0;" parent="1" source="bVXocY5plBnqCkHnwArX-28" edge="1">
          <mxGeometry width="50" height="50" relative="1" as="geometry">
            <mxPoint x="105" y="680.51" as="sourcePoint" />
            <mxPoint x="133.96000000000004" y="630.005" as="targetPoint" />
          </mxGeometry>
        </mxCell>
        <mxCell id="bVXocY5plBnqCkHnwArX-34" value="" style="group" parent="1" vertex="1" connectable="0">
          <mxGeometry x="60" y="190" width="540.0046153846154" height="282.53521126760563" as="geometry" />
        </mxCell>
        <mxCell id="bVXocY5plBnqCkHnwArX-5" value="Consultant Controller Layer" style="swimlane;fontStyle=1;align=center;verticalAlign=middle;childLayout=stackLayout;horizontal=1;startSize=29;horizontalStack=0;resizeParent=1;resizeParentMax=0;resizeLast=0;collapsible=0;marginBottom=0;html=1;" parent="bVXocY5plBnqCkHnwArX-34" vertex="1">
          <mxGeometry x="180.46153846153845" width="170" height="110" as="geometry" />
        </mxCell>
        <mxCell id="bVXocY5plBnqCkHnwArX-6" value="CRUD -&amp;gt; Create, Read &lt;br&gt;Update,&lt;br&gt;Delete Consultants" style="text;html=1;strokeColor=none;fillColor=none;align=center;verticalAlign=middle;spacingLeft=4;spacingRight=4;overflow=hidden;rotatable=0;points=[[0,0.5],[1,0.5]];portConstraint=eastwest;" parent="bVXocY5plBnqCkHnwArX-5" vertex="1">
          <mxGeometry y="29" width="170" height="81" as="geometry" />
        </mxCell>
        <mxCell id="bVXocY5plBnqCkHnwArX-9" value="Appointment Controller Layer" style="swimlane;fontStyle=1;align=center;verticalAlign=middle;childLayout=stackLayout;horizontal=1;startSize=29;horizontalStack=0;resizeParent=1;resizeParentMax=0;resizeLast=0;collapsible=0;marginBottom=0;html=1;" parent="bVXocY5plBnqCkHnwArX-34" vertex="1">
          <mxGeometry x="350.0046153846154" width="190" height="108.03" as="geometry" />
        </mxCell>
        <mxCell id="bVXocY5plBnqCkHnwArX-10" value="CRUD -&amp;gt; Create, Read Update,&lt;br&gt;Delete Appointments" style="text;html=1;strokeColor=none;fillColor=none;align=center;verticalAlign=middle;spacingLeft=4;spacingRight=4;overflow=hidden;rotatable=0;points=[[0,0.5],[1,0.5]];portConstraint=eastwest;" parent="bVXocY5plBnqCkHnwArX-9" vertex="1">
          <mxGeometry y="29" width="190" height="79.03" as="geometry" />
        </mxCell>
        <mxCell id="bVXocY5plBnqCkHnwArX-17" value="Customer" style="swimlane;fontStyle=1;align=center;verticalAlign=middle;childLayout=stackLayout;horizontal=1;startSize=29;horizontalStack=0;resizeParent=1;resizeParentMax=0;resizeLast=0;collapsible=0;marginBottom=0;html=1;" parent="bVXocY5plBnqCkHnwArX-34" vertex="1">
          <mxGeometry y="140.8450704225352" width="133.3846153846154" height="83.77308294209703" as="geometry" />
        </mxCell>
        <mxCell id="bVXocY5plBnqCkHnwArX-15" value="&lt;span style=&quot;color: rgb(0 , 0 , 0) ; font-family: &amp;#34;helvetica&amp;#34; ; font-size: 12px ; font-style: normal ; font-weight: 400 ; letter-spacing: normal ; text-align: center ; text-indent: 0px ; text-transform: none ; word-spacing: 0px ; background-color: rgb(248 , 249 , 250) ; display: inline ; float: none&quot;&gt;- String name&amp;nbsp;&lt;/span&gt;&lt;br style=&quot;color: rgb(0 , 0 , 0) ; font-family: &amp;#34;helvetica&amp;#34; ; font-size: 12px ; font-style: normal ; font-weight: 400 ; letter-spacing: normal ; text-align: center ; text-indent: 0px ; text-transform: none ; word-spacing: 0px ; background-color: rgb(248 , 249 , 250)&quot;&gt;&lt;span style=&quot;color: rgb(0 , 0 , 0) ; font-family: &amp;#34;helvetica&amp;#34; ; font-size: 12px ; font-style: normal ; font-weight: 400 ; letter-spacing: normal ; text-align: center ; text-indent: 0px ; text-transform: none ; word-spacing: 0px ; background-color: rgb(248 , 249 , 250) ; display: inline ; float: none&quot;&gt;- String surname&lt;/span&gt;&lt;br style=&quot;color: rgb(0 , 0 , 0) ; font-family: &amp;#34;helvetica&amp;#34; ; font-size: 12px ; font-style: normal ; font-weight: 400 ; letter-spacing: normal ; text-align: center ; text-indent: 0px ; text-transform: none ; word-spacing: 0px ; background-color: rgb(248 , 249 , 250)&quot;&gt;&lt;span style=&quot;color: rgb(0 , 0 , 0) ; font-family: &amp;#34;helvetica&amp;#34; ; font-size: 12px ; font-style: normal ; font-weight: 400 ; letter-spacing: normal ; text-align: center ; text-indent: 0px ; text-transform: none ; word-spacing: 0px ; background-color: rgb(248 , 249 , 250) ; display: inline ; float: none&quot;&gt;- String address&lt;/span&gt;&lt;br style=&quot;color: rgb(0 , 0 , 0) ; font-family: &amp;#34;helvetica&amp;#34; ; font-size: 12px ; font-style: normal ; font-weight: 400 ; letter-spacing: normal ; text-align: center ; text-indent: 0px ; text-transform: none ; word-spacing: 0px ; background-color: rgb(248 , 249 , 250)&quot;&gt;" style="text;whiteSpace=wrap;html=1;" parent="bVXocY5plBnqCkHnwArX-17" vertex="1">
          <mxGeometry y="29" width="133.3846153846154" height="54.773082942097034" as="geometry" />
        </mxCell>
        <mxCell id="bVXocY5plBnqCkHnwArX-19" value="" style="endArrow=classic;html=1;entryX=0.522;entryY=0.995;entryDx=0;entryDy=0;entryPerimeter=0;exitX=0.5;exitY=0;exitDx=0;exitDy=0;" parent="bVXocY5plBnqCkHnwArX-34" source="bVXocY5plBnqCkHnwArX-17" target="bVXocY5plBnqCkHnwArX-3" edge="1">
          <mxGeometry width="50" height="50" relative="1" as="geometry">
            <mxPoint x="15.692307692307693" y="250.3912363067293" as="sourcePoint" />
            <mxPoint x="54.92307692307693" y="211.26760563380284" as="targetPoint" />
          </mxGeometry>
        </mxCell>
        <mxCell id="bVXocY5plBnqCkHnwArX-23" value="Consultant" style="swimlane;fontStyle=1;align=center;verticalAlign=middle;childLayout=stackLayout;horizontal=1;startSize=29;horizontalStack=0;resizeParent=1;resizeParentMax=0;resizeLast=0;collapsible=0;marginBottom=0;html=1;" parent="bVXocY5plBnqCkHnwArX-34" vertex="1">
          <mxGeometry x="176.53846153846152" y="166.2250704225352" width="133.38" height="110" as="geometry" />
        </mxCell>
        <mxCell id="bVXocY5plBnqCkHnwArX-24" value="&lt;span style=&quot;color: rgb(0 , 0 , 0) ; font-family: &amp;#34;helvetica&amp;#34; ; font-size: 12px ; font-style: normal ; font-weight: 400 ; letter-spacing: normal ; text-align: center ; text-indent: 0px ; text-transform: none ; word-spacing: 0px ; background-color: rgb(248 , 249 , 250) ; display: inline ; float: none&quot;&gt;- String name&amp;nbsp;&lt;/span&gt;&lt;br style=&quot;color: rgb(0 , 0 , 0) ; font-family: &amp;#34;helvetica&amp;#34; ; font-size: 12px ; font-style: normal ; font-weight: 400 ; letter-spacing: normal ; text-align: center ; text-indent: 0px ; text-transform: none ; word-spacing: 0px ; background-color: rgb(248 , 249 , 250)&quot;&gt;&lt;span style=&quot;color: rgb(0 , 0 , 0) ; font-family: &amp;#34;helvetica&amp;#34; ; font-size: 12px ; font-style: normal ; font-weight: 400 ; letter-spacing: normal ; text-align: center ; text-indent: 0px ; text-transform: none ; word-spacing: 0px ; background-color: rgb(248 , 249 , 250) ; display: inline ; float: none&quot;&gt;- String surname&lt;/span&gt;&lt;br style=&quot;color: rgb(0 , 0 , 0) ; font-family: &amp;#34;helvetica&amp;#34; ; font-size: 12px ; font-style: normal ; font-weight: 400 ; letter-spacing: normal ; text-align: center ; text-indent: 0px ; text-transform: none ; word-spacing: 0px ; background-color: rgb(248 , 249 , 250)&quot;&gt;&lt;span style=&quot;color: rgb(0 , 0 , 0) ; font-family: &amp;#34;helvetica&amp;#34; ; font-size: 12px ; font-style: normal ; font-weight: 400 ; letter-spacing: normal ; text-align: center ; text-indent: 0px ; text-transform: none ; word-spacing: 0px ; background-color: rgb(248 , 249 , 250) ; display: inline ; float: none&quot;&gt;- String address&lt;br&gt;&lt;/span&gt;- enum resume&lt;br&gt;- avg rating" style="text;whiteSpace=wrap;html=1;" parent="bVXocY5plBnqCkHnwArX-23" vertex="1">
          <mxGeometry y="29" width="133.38" height="81" as="geometry" />
        </mxCell>
        <mxCell id="bVXocY5plBnqCkHnwArX-25" value="" style="endArrow=classic;html=1;exitX=0.5;exitY=0;exitDx=0;exitDy=0;" parent="bVXocY5plBnqCkHnwArX-34" source="bVXocY5plBnqCkHnwArX-23" target="bVXocY5plBnqCkHnwArX-6" edge="1">
          <mxGeometry width="50" height="50" relative="1" as="geometry">
            <mxPoint x="192.23076923076923" y="250.3912363067293" as="sourcePoint" />
            <mxPoint x="266" y="120" as="targetPoint" />
          </mxGeometry>
        </mxCell>
        <mxCell id="bVXocY5plBnqCkHnwArX-31" value="Appointment" style="swimlane;fontStyle=1;align=center;verticalAlign=middle;childLayout=stackLayout;horizontal=1;startSize=29;horizontalStack=0;resizeParent=1;resizeParentMax=0;resizeLast=0;collapsible=0;marginBottom=0;html=1;" parent="bVXocY5plBnqCkHnwArX-34" vertex="1">
          <mxGeometry x="368.7692307692308" y="172.53521126760563" width="173.38" height="110" as="geometry" />
        </mxCell>
        <mxCell id="bVXocY5plBnqCkHnwArX-32" value="&lt;div&gt;&lt;span&gt;&lt;font face=&quot;helvetica&quot;&gt;- String Date&lt;/font&gt;&lt;/span&gt;&lt;/div&gt;&lt;div&gt;&lt;span&gt;&lt;font face=&quot;helvetica&quot;&gt;-String Time&lt;/font&gt;&lt;/span&gt;&lt;/div&gt;&lt;div&gt;&lt;font face=&quot;helvetica&quot;&gt;-User user&lt;/font&gt;&lt;/div&gt;&lt;div&gt;&lt;font face=&quot;helvetica&quot;&gt;-Consultant consultant&lt;/font&gt;&lt;/div&gt;" style="text;whiteSpace=wrap;html=1;align=left;" parent="bVXocY5plBnqCkHnwArX-31" vertex="1">
          <mxGeometry y="29" width="173.38" height="81" as="geometry" />
        </mxCell>
        <mxCell id="bVXocY5plBnqCkHnwArX-33" value="" style="endArrow=classic;html=1;entryX=0.46;entryY=1.017;entryDx=0;entryDy=0;entryPerimeter=0;exitX=0.5;exitY=0;exitDx=0;exitDy=0;" parent="bVXocY5plBnqCkHnwArX-34" source="bVXocY5plBnqCkHnwArX-31" target="bVXocY5plBnqCkHnwArX-10" edge="1">
          <mxGeometry width="50" height="50" relative="1" as="geometry">
            <mxPoint x="384.46153846153845" y="282.0813771517997" as="sourcePoint" />
            <mxPoint x="458.1840000000001" y="133.01643192488265" as="targetPoint" />
          </mxGeometry>
        </mxCell>
        <mxCell id="bVXocY5plBnqCkHnwArX-3" value="CRUD -&amp;gt; Create, Read, Update&lt;br&gt;Delete Users" style="text;html=1;strokeColor=none;fillColor=none;align=center;verticalAlign=middle;spacingLeft=4;spacingRight=4;overflow=hidden;rotatable=0;points=[[0,0.5],[1,0.5]];portConstraint=eastwest;" parent="bVXocY5plBnqCkHnwArX-34" vertex="1">
          <mxGeometry y="29" width="180" height="79.03" as="geometry" />
        </mxCell>
        <mxCell id="bVXocY5plBnqCkHnwArX-2" value="Customer Controller Layer" style="swimlane;fontStyle=1;align=center;verticalAlign=middle;childLayout=stackLayout;horizontal=1;startSize=29;horizontalStack=0;resizeParent=1;resizeParentMax=0;resizeLast=0;collapsible=0;marginBottom=0;html=1;" parent="1" vertex="1">
          <mxGeometry x="60" y="190" width="180" height="83.77308294209703" as="geometry" />
        </mxCell>
        <mxCell id="bVXocY5plBnqCkHnwArX-47" value="&lt;span style=&quot;color: rgb(0 , 0 , 0) ; font-family: &amp;#34;helvetica&amp;#34; ; font-size: 12px ; font-style: normal ; font-weight: 400 ; letter-spacing: normal ; text-align: center ; text-indent: 0px ; text-transform: none ; word-spacing: 0px ; background-color: rgb(248 , 249 , 250) ; display: inline ; float: none&quot;&gt;- String name&amp;nbsp;&lt;/span&gt;&lt;br style=&quot;color: rgb(0 , 0 , 0) ; font-family: &amp;#34;helvetica&amp;#34; ; font-size: 12px ; font-style: normal ; font-weight: 400 ; letter-spacing: normal ; text-align: center ; text-indent: 0px ; text-transform: none ; word-spacing: 0px ; background-color: rgb(248 , 249 , 250)&quot;&gt;&lt;span style=&quot;color: rgb(0 , 0 , 0) ; font-family: &amp;#34;helvetica&amp;#34; ; font-size: 12px ; font-style: normal ; font-weight: 400 ; letter-spacing: normal ; text-align: center ; text-indent: 0px ; text-transform: none ; word-spacing: 0px ; background-color: rgb(248 , 249 , 250) ; display: inline ; float: none&quot;&gt;- String surname&lt;/span&gt;&lt;br style=&quot;color: rgb(0 , 0 , 0) ; font-family: &amp;#34;helvetica&amp;#34; ; font-size: 12px ; font-style: normal ; font-weight: 400 ; letter-spacing: normal ; text-align: center ; text-indent: 0px ; text-transform: none ; word-spacing: 0px ; background-color: rgb(248 , 249 , 250)&quot;&gt;&lt;span style=&quot;color: rgb(0 , 0 , 0) ; font-family: &amp;#34;helvetica&amp;#34; ; font-size: 12px ; font-style: normal ; font-weight: 400 ; letter-spacing: normal ; text-align: center ; text-indent: 0px ; text-transform: none ; word-spacing: 0px ; background-color: rgb(248 , 249 , 250) ; display: inline ; float: none&quot;&gt;- String address&lt;/span&gt;&lt;br style=&quot;color: rgb(0 , 0 , 0) ; font-family: &amp;#34;helvetica&amp;#34; ; font-size: 12px ; font-style: normal ; font-weight: 400 ; letter-spacing: normal ; text-align: center ; text-indent: 0px ; text-transform: none ; word-spacing: 0px ; background-color: rgb(248 , 249 , 250)&quot;&gt;" style="text;whiteSpace=wrap;html=1;" parent="bVXocY5plBnqCkHnwArX-2" vertex="1">
          <mxGeometry y="29" width="180" height="54.773082942097034" as="geometry" />
        </mxCell>
        <mxCell id="bVXocY5plBnqCkHnwArX-38" value="" style="line;strokeWidth=1;fillColor=none;align=left;verticalAlign=middle;spacingTop=-1;spacingLeft=3;spacingRight=3;rotatable=0;labelPosition=right;points=[];portConstraint=eastwest;" parent="1" vertex="1">
          <mxGeometry x="265" y="571" width="40" height="8" as="geometry" />
        </mxCell>
        <mxCell id="bVXocY5plBnqCkHnwArX-39" value="&lt;font face=&quot;helvetica&quot;&gt;&lt;span style=&quot;font-weight: 400&quot;&gt;Service Layer&lt;/span&gt;&lt;/font&gt;" style="swimlane;fontStyle=1;align=center;verticalAlign=middle;childLayout=stackLayout;horizontal=1;startSize=29;horizontalStack=0;resizeParent=1;resizeParentMax=0;resizeLast=0;collapsible=0;marginBottom=0;html=1;" parent="1" vertex="1">
          <mxGeometry x="305" y="520" width="170" height="99" as="geometry" />
        </mxCell>
        <mxCell id="bVXocY5plBnqCkHnwArX-40" value="&lt;font face=&quot;helvetica&quot;&gt;- Get NetProfit&lt;br&gt;- Get TotalRevenue&lt;br&gt;&lt;br&gt;&lt;/font&gt;" style="text;whiteSpace=wrap;html=1;align=left;" parent="bVXocY5plBnqCkHnwArX-39" vertex="1">
          <mxGeometry y="29" width="170" height="70" as="geometry" />
        </mxCell>
        <mxCell id="bVXocY5plBnqCkHnwArX-14" value="&lt;br&gt;- Update RecievedPayments&lt;br&gt;" style="text;html=1;strokeColor=none;fillColor=none;align=center;verticalAlign=middle;spacingLeft=4;spacingRight=4;overflow=hidden;rotatable=0;points=[[0,0.5],[1,0.5]];portConstraint=eastwest;" parent="1" vertex="1">
          <mxGeometry x="35" y="550" width="230" height="80" as="geometry" />
        </mxCell>
        <mxCell id="bVXocY5plBnqCkHnwArX-41" value="Review&amp;nbsp; Controller Layer" style="swimlane;fontStyle=1;align=center;verticalAlign=middle;childLayout=stackLayout;horizontal=1;startSize=30;horizontalStack=0;resizeParent=1;resizeParentMax=0;resizeLast=0;collapsible=0;marginBottom=0;html=1;" parent="1" vertex="1">
          <mxGeometry x="290" y="684.5" width="230" height="110" as="geometry" />
        </mxCell>
        <mxCell id="bVXocY5plBnqCkHnwArX-42" value="- Crud" style="text;html=1;strokeColor=none;fillColor=none;align=center;verticalAlign=middle;spacingLeft=4;spacingRight=4;overflow=hidden;rotatable=0;points=[[0,0.5],[1,0.5]];portConstraint=eastwest;" parent="1" vertex="1">
          <mxGeometry x="290" y="714.5" width="230" height="80" as="geometry" />
        </mxCell>
        <mxCell id="bVXocY5plBnqCkHnwArX-45" value="&lt;font face=&quot;helvetica&quot;&gt;&lt;span style=&quot;font-weight: 400&quot;&gt;Review&lt;/span&gt;&lt;/font&gt;" style="swimlane;fontStyle=1;align=center;verticalAlign=middle;childLayout=stackLayout;horizontal=1;startSize=29;horizontalStack=0;resizeParent=1;resizeParentMax=0;resizeLast=0;collapsible=0;marginBottom=0;html=1;" parent="1" vertex="1">
          <mxGeometry x="290" y="840" width="170" height="120" as="geometry" />
        </mxCell>
        <mxCell id="bVXocY5plBnqCkHnwArX-46" value="&lt;div&gt;&lt;span style=&quot;font-family: &amp;#34;helvetica&amp;#34;&quot;&gt;- Customer Customer&lt;/span&gt;&lt;br&gt;&lt;/div&gt;&lt;div&gt;&lt;font face=&quot;helvetica&quot;&gt;- Consultant Consultant&lt;/font&gt;&lt;/div&gt;&lt;div&gt;&lt;span style=&quot;font-family: &amp;#34;helvetica&amp;#34;&quot;&gt;- String Review&lt;/span&gt;&lt;/div&gt;&lt;div&gt;&lt;font face=&quot;helvetica&quot;&gt;- enum rating (1-10)&lt;/font&gt;&lt;/div&gt;" style="text;whiteSpace=wrap;html=1;align=left;" parent="bVXocY5plBnqCkHnwArX-45" vertex="1">
          <mxGeometry y="29" width="170" height="91" as="geometry" />
        </mxCell>
        <mxCell id="bVXocY5plBnqCkHnwArX-48" value="" style="endArrow=classic;html=1;entryX=0.522;entryY=0.995;entryDx=0;entryDy=0;entryPerimeter=0;" parent="1" edge="1">
          <mxGeometry width="50" height="50" relative="1" as="geometry">
            <mxPoint x="378" y="840" as="sourcePoint" />
            <mxPoint x="391.98" y="794.4950000000001" as="targetPoint" />
          </mxGeometry>
        </mxCell>
      </root>
    </mxGraphModel>
  </diagram>
</mxfile>
